<?xml version="1.0" standalone="no"?><!DOCTYPE svg PUBLIC "-//W3C//DTD SVG 1.1//EN" "http://www.w3.org/Graphics/SVG/1.1/DTD/svg11.dtd"><svg t="1511856564865" class="icon" style="" viewBox="0 0 1024 1024" version="1.1" xmlns="http://www.w3.org/2000/svg" p-id="11979" xmlns:xlink="http://www.w3.org/1999/xlink" width="32" height="32"><defs><style type="text/css"></style></defs><path d="M240.0256 922.4192A489.34912 489.34912 0 0 0 512 1004.46208c271.44192 0 491.52-220.03712 491.52-491.52 0-271.44192-220.07808-491.52-491.52-491.52s-491.52 220.07808-491.52 491.52c0 97.32096 28.38528 190.54592 80.77312 270.09024a40.96 40.96 0 0 0 68.4032-45.056A407.42912 407.42912 0 0 1 102.4 512.94208c0-226.18112 183.37792-409.6 409.6-409.6s409.6 183.41888 409.6 409.6c0 226.22208-183.37792 409.6-409.6 409.6a407.42912 407.42912 0 0 1-226.63168-68.32128A40.96 40.96 0 1 0 240.0256 922.4192z" fill="#499DF1" p-id="11980"></path><path d="M744.81664 329.03168l-99.16416 99.20512-99.36896 99.328-117.80096 117.84192a7.86432 7.86432 0 0 1-11.10016 0l-138.19904-138.24A40.96 40.96 0 1 0 221.184 565.12512l138.19904 138.19904a89.78432 89.78432 0 0 0 126.976 0l117.84192-117.80096 98.18112-98.22208 100.352-100.352a40.96 40.96 0 1 0-57.9584-57.91744z" fill="#499DF1" p-id="11981"></path></svg>